<?xml version="1.0" encoding="UTF-8"?>
<svg version="1.1" xmlns="http://www.w3.org/2000/svg" width="31.88" height="50">
<path d="M0 0 C1.00740234 -0.02449219 2.01480469 -0.04898438 3.05273438 -0.07421875 C10.55174163 -0.10353083 15.89113663 1.17531457 21.67578125 6.05078125 C22.11277344 6.59089844 22.54976563 7.13101562 23 7.6875 C23.44988281 8.21988281 23.89976563 8.75226562 24.36328125 9.30078125 C32.62658967 22.24419355 28.6875 30.17155736 28.6875 48.375 C50.1375 48.375 71.5875 48.375 93.6875 48.375 C93.6875 38.145 93.6875 27.915 93.6875 17.375 C98.21283784 8.32432432 98.21283784 8.32432432 101.625 5.5 C102.27339844 4.94570312 102.92179688 4.39140625 103.58984375 3.8203125 C109.44067685 -0.21098778 115.14330099 0.00867388 122 0 C123.00740234 -0.02449219 124.01480469 -0.04898438 125.05273438 -0.07421875 C132.74571302 -0.10428902 138.05842975 1.25172352 143.9296875 6.3046875 C144.46851563 6.94664062 145.00734375 7.58859375 145.5625 8.25 C146.11679688 8.88679687 146.67109375 9.52359375 147.2421875 10.1796875 C154.53724071 21.26028184 150.6875 36.31025371 150.6875 48.375 C172.1375 48.375 193.5875 48.375 215.6875 48.375 C215.6875 38.145 215.6875 27.915 215.6875 17.375 C220.21283784 8.32432432 220.21283784 8.32432432 223.625 5.5 C224.27339844 4.94570312 224.92179687 4.39140625 225.58984375 3.8203125 C231.44067685 -0.21098778 237.14330099 0.00867388 244 0 C245.00740234 -0.02449219 246.01480469 -0.04898438 247.05273438 -0.07421875 C254.74373442 -0.10428129 260.09641888 1.22811184 265.9296875 6.33984375 C266.46851563 6.99082031 267.00734375 7.64179687 267.5625 8.3125 C268.11679687 8.96089844 268.67109375 9.60929688 269.2421875 10.27734375 C272.49023457 14.99140126 272.92950278 18.97166251 272.8828125 24.64453125 C272.87856766 25.66603523 272.87856766 25.66603523 272.87423706 26.70817566 C272.86310525 28.86813455 272.83801457 31.02766794 272.8125 33.1875 C272.80246111 34.65819711 272.79333685 36.12890076 272.78515625 37.59960938 C272.76318913 41.19154286 272.7287082 44.78322985 272.6875 48.375 C273.35064209 48.42833496 274.01378418 48.48166992 274.69702148 48.53662109 C286.70586208 49.60012656 295.91389935 53.70305939 303.921875 62.95703125 C311.47580604 72.81298142 313.79521873 82.0798258 313.89282227 94.39990234 C313.90272186 95.18106415 313.91262146 95.96222595 313.92282104 96.76705933 C313.95423757 99.33165527 313.9791144 101.89626969 314.00390625 104.4609375 C314.02449295 106.24598656 314.04548986 108.03103093 314.06687927 109.81607056 C314.12192279 114.50132437 314.17140981 119.18662088 314.21972656 123.87194824 C314.27007141 128.65816014 314.32568954 133.44431047 314.38085938 138.23046875 C314.48822403 147.6119265 314.58971668 156.99343784 314.6875 166.375 C315.51720306 165.53419388 316.34690613 164.69338776 317.20175171 163.82710266 C325.04379625 155.88345522 332.8991958 147.9532296 340.7676754 140.03576374 C344.81198394 135.96542377 348.85153487 131.89059135 352.88037109 127.80493164 C356.77263518 123.85811976 360.6771841 119.92384688 364.5903511 115.99776268 C366.07699119 114.5019237 367.5592428 113.00170927 369.03687668 111.49697304 C385.39168317 94.85437847 385.39168317 94.85437847 395.7890625 92.74609375 C396.62179687 92.76800781 397.45453125 92.78992188 398.3125 92.8125 C399.15039062 92.81121094 399.98828125 92.80992188 400.8515625 92.80859375 C409.85072536 94.60594721 415.30835163 100.40851471 421.5 106.75 C422.34498047 107.58789062 423.18996094 108.42578125 424.06054688 109.2890625 C430.28717786 115.57998753 434.24518365 120.62488743 434.9375 129.625 C434.28669855 139.38702182 429.40632394 144.6991701 422.6875 151.375 C419.17617123 154.30872143 415.4911068 156.95893576 411.76757812 159.61547852 C396.66778162 170.72038008 382.24483065 182.54051997 368.1875 194.9375 C367.23445213 195.77595506 367.23445213 195.77595506 366.26215076 196.63134861 C333.23573321 225.81074123 310.86504443 254.23266835 307.73477936 299.39130211 C306.65495429 317.53473463 306.79958697 335.59796836 307.5625 353.75 C307.60390232 354.74844138 307.64530464 355.74688275 307.68796158 356.77557993 C308.4539184 374.73448578 309.51965668 392.67408994 311.30966187 410.56196594 C311.39183606 411.39134448 311.47401025 412.22072302 311.55867457 413.07523423 C311.9435724 416.92097451 312.34923932 420.76216686 312.799263 424.60083866 C315.19719095 446.20635929 308.99559964 465.59547261 295.6875 482.6875 C294.3683385 484.26198308 293.0360727 485.82563378 291.6875 487.375 C290.92759766 488.27798828 290.92759766 488.27798828 290.15234375 489.19921875 C278.40490886 502.08834808 259.45960624 511.33487954 242.03127599 512.56202769 C239.02303426 512.63725214 236.02055987 512.65122103 233.01138306 512.64242554 C231.86397624 512.64695665 230.71656943 512.65148776 229.53439271 512.65615618 C225.70469046 512.66877679 221.87513085 512.66718131 218.04541016 512.66552734 C215.29348722 512.67042962 212.54157417 512.67826363 209.78965759 512.68588257 C203.09955566 512.70245233 196.40948898 512.70799025 189.71936823 512.70910732 C184.27916862 512.71005953 178.83898059 512.71417843 173.39878464 512.72050858 C157.95782891 512.73810855 142.51690091 512.74734918 127.07593508 512.74584763 C126.24456791 512.74576772 125.41320074 512.7456878 124.55664062 512.74560547 C123.30805889 512.74548283 123.30805889 512.74548283 122.03425328 512.74535771 C108.54333473 512.74454474 95.0525278 512.7636883 81.56164153 512.7918822 C67.69265334 512.82063652 53.82371957 512.83442116 39.95470083 512.83269465 C32.17491841 512.83203172 24.39525308 512.83748166 16.61549759 512.85905075 C9.9925081 512.87729595 3.36968883 512.88158245 -3.25331496 512.8680319 C-6.6290277 512.86151937 -10.00414886 512.8635124 -13.37987328 512.8787384 C-17.04767691 512.89420767 -20.71463003 512.88487024 -24.38241577 512.86947632 C-25.43759191 512.87976344 -26.49276805 512.89005057 -27.57991922 512.90064943 C-39.67877672 512.78883072 -48.69823021 508.58204796 -57.40625 500.41015625 C-66.08784892 491.45320811 -69.43088563 480.88339466 -69.44392776 468.57945824 C-69.4459804 467.91766459 -69.44803303 467.25587095 -69.45014787 466.57402295 C-69.45579758 464.35876782 -69.45436314 462.14357525 -69.45294189 459.92831421 C-69.4555267 458.32301532 -69.45854018 456.71771708 -69.4619453 455.11241972 C-69.47000506 450.70252617 -69.4718043 446.29264889 -69.47254276 441.88274884 C-69.4743951 437.12592969 -69.48194336 432.36911896 -69.48867798 427.61230469 C-69.50225462 417.21136068 -69.508285 406.81042052 -69.51268864 396.40946913 C-69.51545223 389.91365064 -69.5196898 383.41783363 -69.52419281 376.92201614 C-69.53638467 358.93297863 -69.54668411 340.9439423 -69.5500679 322.95490074 C-69.55028747 321.80376182 -69.55050703 320.65262291 -69.55073325 319.46660099 C-69.55095153 318.31272539 -69.55116981 317.15884978 -69.5513947 315.97000825 C-69.55183817 313.63186097 -69.55228473 311.29371369 -69.55273438 308.95556641 C-69.5529558 307.79576738 -69.55317723 306.63596835 -69.55340537 305.4410239 C-69.55735276 286.6513018 -69.57480534 267.8616185 -69.5980939 249.07191138 C-69.62181712 229.77557019 -69.6342702 210.47924845 -69.63543582 191.18289244 C-69.63635204 180.35083314 -69.64209104 169.51882439 -69.66025543 158.68677902 C-69.67566951 149.46240702 -69.68076915 140.2381012 -69.67251733 131.01371877 C-69.66861546 126.30947158 -69.66951783 121.60535759 -69.68357468 116.90112686 C-69.69634122 112.58917522 -69.69509199 108.27745652 -69.68298396 103.96550508 C-69.68103173 102.41097022 -69.68408338 100.85641871 -69.69282833 99.30190723 C-69.77319519 84.04173216 -67.66408243 71.76852649 -57.27734375 60.0859375 C-48.93730155 52.00321058 -39.62903316 49.21320989 -28.3125 48.375 C-28.33344727 47.4778125 -28.35439453 46.580625 -28.37597656 45.65625 C-28.44457616 42.29400141 -28.49450294 38.93250765 -28.53222656 35.56982422 C-28.55221295 34.12081083 -28.57941197 32.67187675 -28.61425781 31.22314453 C-28.83470504 21.81523473 -28.89103743 14.5998121 -22.34765625 7.1328125 C-21.69667969 6.59398437 -21.04570313 6.05515625 -20.375 5.5 C-19.72660156 4.94570312 -19.07820313 4.39140625 -18.41015625 3.8203125 C-12.55932315 -0.21098778 -6.85669901 0.00867388 0 0 Z " fill="#FAF0CE" transform="translate(73.3125,-0.375)"/>
<path d="M0 0 C1.00740234 -0.02449219 2.01480469 -0.04898438 3.05273438 -0.07421875 C10.55174163 -0.10353083 15.89113663 1.17531457 21.67578125 6.05078125 C22.11277344 6.59089844 22.54976563 7.13101562 23 7.6875 C23.44988281 8.21988281 23.89976563 8.75226562 24.36328125 9.30078125 C27.79452803 14.67538904 29.06796813 19.12413102 29.0859375 25.48828125 C29.08880768 26.14273727 29.09167786 26.7971933 29.09463501 27.47148132 C29.0966624 28.84712598 29.09122594 30.22280034 29.07861328 31.59838867 C29.06261654 33.6723899 29.0784645 35.74441974 29.09765625 37.81835938 C29.12881681 52.87997595 29.12881681 52.87997595 25.6875 59.375 C25.21434357 59.82981247 24.74118713 60.28462494 24.25369263 60.7532196 C20.4660816 64.41813179 19.26238829 67.00124903 19.00634766 72.31030273 C19.00729112 74.64328211 19.04081016 76.97640533 19.1015625 79.30859375 C19.11429703 81.15820457 19.11429703 81.15820457 19.12728882 83.04518127 C19.16077104 86.96852406 19.23605064 90.88978246 19.3125 94.8125 C19.34599777 97.47848556 19.36998006 100.14445154 19.39453125 102.81054688 C19.46054611 109.33273775 19.56084718 115.85371994 19.6875 122.375 C20.7560321 122.37055878 21.82456421 122.36611755 22.92547607 122.36154175 C32.99005993 122.32101739 43.05462725 122.29102603 53.11927414 122.27137566 C58.29374336 122.26093364 63.46814678 122.24676675 68.64257812 122.22412109 C73.63517149 122.20240771 78.62770151 122.19043452 83.62033844 122.18524551 C85.52614591 122.18154706 87.43194987 122.17432502 89.33773041 122.16353989 C92.00485252 122.14904502 94.67171209 122.14702122 97.33886719 122.14794922 C98.1286496 122.14075867 98.91843201 122.13356812 99.73214722 122.12615967 C106.65032856 122.15224654 106.65032856 122.15224654 109.6875 124.375 C111.6875 127.375 111.6875 127.375 111.6875 130.8125 C110.6875 134.375 110.6875 134.375 108.15524292 136.5692749 C104.04270796 138.71075648 100.72395197 138.91317296 96.20361328 138.82910156 C95.37368362 138.82968567 94.54375397 138.83026978 93.68867493 138.83087158 C90.9612867 138.82809772 88.23500842 138.79703951 85.5078125 138.765625 C83.61067298 138.75816011 81.71352573 138.75246835 79.81637573 138.74847412 C74.83494597 138.73323731 69.85398634 138.69397231 64.8727417 138.6496582 C59.78501748 138.60866336 54.69721695 138.59045411 49.609375 138.5703125 C39.6351774 138.52747604 29.66145143 138.45714214 19.6875 138.375 C20.1825 150.255 20.1825 150.255 20.6875 162.375 C22.72292969 162.32859375 24.75835937 162.2821875 26.85546875 162.234375 C28.83795209 162.20655067 30.82044037 162.17887227 32.80297852 162.15527344 C34.17550023 162.1352201 35.54793717 162.10796972 36.92016602 162.07324219 C38.89822044 162.02445448 40.87691119 162.00411124 42.85546875 161.984375 C44.04422607 161.96342773 45.2329834 161.94248047 46.45776367 161.92089844 C50.32101524 162.46407237 51.94639028 163.65475686 54.6875 166.375 C55.38671875 168.375 55.38671875 168.375 55.375 170.375 C55.39949219 171.035 55.42398438 171.695 55.44921875 172.375 C54.49204455 174.88819586 53.19113207 176.21548595 50.90063477 177.60742188 C45.64705085 179.4295143 39.79561736 178.76799002 34.3125 178.625 C33.00410156 178.60695312 31.69570312 178.58890625 30.34765625 178.5703125 C27.12685311 178.52329348 23.90755526 178.45758181 20.6875 178.375 C20.83695068 179.26743408 20.98640137 180.15986816 21.14038086 181.0793457 C21.94311772 186.72498216 22.14812435 192.41528214 22.44140625 198.10546875 C22.50657944 199.33227859 22.57175262 200.55908844 22.63890076 201.82307434 C22.77570867 204.41427619 22.91093315 207.00556206 23.04467773 209.59692383 C23.24840402 213.5316753 23.45880501 217.46602958 23.66992188 221.40039062 C23.80248694 223.92706219 23.93466094 226.45375431 24.06640625 228.98046875 C24.12889053 230.14337936 24.19137482 231.30628998 24.25575256 232.50444031 C24.6268191 239.80166577 24.76156136 247.0686997 24.6875 254.375 C25.6889505 254.36389694 26.690401 254.35279388 27.72219849 254.34135437 C37.16799298 254.23991894 46.61367673 254.16500616 56.05989265 254.11593914 C60.91613623 254.08986486 65.77193951 254.05450653 70.62792969 253.99780273 C75.31582836 253.94340543 80.00330402 253.91356314 84.69149399 253.90061378 C86.47848036 253.89138774 88.26544403 253.873371 90.05224991 253.84634972 C92.55893912 253.80995555 95.06388912 253.80505879 97.57080078 253.80737305 C98.30663895 253.78939667 99.04247711 253.77142029 99.8006134 253.75289917 C103.64560395 253.79121182 106.17806608 254.36825114 109.18307495 256.68782043 C111.6875 259.375 111.6875 259.375 111.875 262.9375 C110.45337654 267.0527258 109.35318256 268.09404555 105.6875 270.375 C102.94018863 270.74204248 100.60584291 270.88373263 97.86791992 270.82910156 C96.71102661 270.82997772 96.71102661 270.82997772 95.53076172 270.83087158 C92.99269915 270.82809466 90.45582501 270.7970227 87.91796875 270.765625 C86.15392193 270.75816118 84.3898668 270.75246891 82.62580872 270.74847412 C77.99123086 270.73322882 73.3571574 270.69395668 68.72277832 270.6496582 C63.99038516 270.60868159 59.2579102 270.59045801 54.52539062 270.5703125 C45.24583691 270.52746106 35.96678938 270.4571204 26.6875 270.375 C27.3475 278.295 28.0075 286.215 28.6875 294.375 C35.37407961 294.21734458 35.37407961 294.21734458 42.05932617 294.01464844 C46.36171796 293.96349333 49.01287011 293.99525814 52.82421875 296.140625 C54.76926156 298.47304531 55.37088837 299.38551565 55.3125 302.375 C55.32539063 303.035 55.33828125 303.695 55.3515625 304.375 C54.27125311 307.6286377 52.59019828 308.58844019 49.6875 310.375 C46.40067717 310.85838996 43.18799765 310.75346822 39.875 310.625 C38.99134766 310.60695313 38.10769531 310.58890625 37.19726562 310.5703125 C35.02687457 310.52338513 32.85704481 310.45164731 30.6875 310.375 C31.60437651 317.09387951 32.52901383 323.8116615 33.45849609 330.52880859 C33.77236455 332.80331506 34.08459927 335.07804771 34.39501953 337.35302734 C36.14099169 350.13987197 38.0119824 362.86825729 40.45587158 375.5428772 C40.61706482 376.38643768 40.77825806 377.22999817 40.94433594 378.09912109 C41.08804626 378.83198334 41.23175659 379.56484558 41.37982178 380.31991577 C41.6875 382.375 41.6875 382.375 41.6875 386.375 C42.47597321 386.36389694 43.26444641 386.35279388 44.07681274 386.34135437 C51.5212576 386.24101093 58.96537282 386.16496419 66.41031837 386.11593914 C70.23754438 386.08988691 74.06420985 386.05457109 77.89111328 385.99780273 C81.58699394 385.94332344 85.28233678 385.91354657 88.9785881 385.90061378 C90.38600503 385.89140213 91.79339375 385.87341321 93.2005806 385.84634972 C105.60528248 385.61734882 105.60528248 385.61734882 109.58740234 388.68286133 C111.6875 391.375 111.6875 391.375 111.875 394.9375 C110.46824819 399.00967629 109.26367133 400.06328019 105.6875 402.375 C102.80839539 402.85601807 102.80839539 402.85601807 99.61206055 402.82910156 C97.81075935 402.82864838 97.81075935 402.82864838 95.97306824 402.82818604 C94.68644791 402.80754089 93.39982758 402.78689575 92.07421875 402.765625 C90.73615873 402.75815827 89.39808772 402.75246738 88.06001282 402.74847412 C84.54984992 402.73325131 81.04035626 402.69400009 77.53045654 402.6496582 C73.94422457 402.60863207 70.35788373 402.59044755 66.77148438 402.5703125 C59.74321585 402.52750133 52.71539012 402.45929168 45.6875 402.375 C46.6094684 406.29549055 47.55273903 410.21055043 48.5 414.125 C48.76103516 415.23617188 49.02207031 416.34734375 49.29101562 417.4921875 C49.55205078 418.56210937 49.81308594 419.63203125 50.08203125 420.734375 C50.31768799 421.71889648 50.55334473 422.70341797 50.79614258 423.71777344 C51.71507962 426.45721765 52.90705902 428.13189152 54.6875 430.375 C55.26196289 432.95336914 55.26196289 432.95336914 55.59765625 435.84765625 C56.59123611 442.5606764 58.63869309 448.51782139 61.125 454.8125 C61.56384521 455.93414551 62.00269043 457.05579102 62.45483398 458.21142578 C68.65941718 473.70478662 75.90929563 488.53377995 86.6875 501.375 C87.265 502.07882812 87.8425 502.78265625 88.4375 503.5078125 C91.04602048 506.62499447 93.80769718 509.50585359 96.6875 512.375 C79.53647039 512.46864456 62.38552112 512.5390774 45.23429394 512.58224869 C37.26979691 512.60283104 29.30545919 512.63086829 21.34106445 512.67675781 C14.39532732 512.71675876 7.44970561 512.74246423 0.50385648 512.75135398 C-3.17037836 512.75654645 -6.84428311 512.76865886 -10.51841164 512.79792023 C-14.63066572 512.83040205 -18.7423542 512.83095097 -22.85473633 512.82910156 C-24.05883652 512.84348267 -25.26293671 512.85786377 -26.50352478 512.87268066 C-39.13770384 512.81142975 -48.27553943 508.97871486 -57.40625 500.41015625 C-66.08784892 491.45320811 -69.43088563 480.88339466 -69.44392776 468.57945824 C-69.4459804 467.91766459 -69.44803303 467.25587095 -69.45014787 466.57402295 C-69.45579758 464.35876782 -69.45436314 462.14357525 -69.45294189 459.92831421 C-69.4555267 458.32301532 -69.45854018 456.71771708 -69.4619453 455.11241972 C-69.47000506 450.70252617 -69.4718043 446.29264889 -69.47254276 441.88274884 C-69.4743951 437.12592969 -69.48194336 432.36911896 -69.48867798 427.61230469 C-69.50225462 417.21136068 -69.508285 406.81042052 -69.51268864 396.40946913 C-69.51545223 389.91365064 -69.5196898 383.41783363 -69.52419281 376.92201614 C-69.53638467 358.93297863 -69.54668411 340.9439423 -69.5500679 322.95490074 C-69.55028747 321.80376182 -69.55050703 320.65262291 -69.55073325 319.46660099 C-69.55095153 318.31272539 -69.55116981 317.15884978 -69.5513947 315.97000825 C-69.55183817 313.63186097 -69.55228473 311.29371369 -69.55273438 308.95556641 C-69.5529558 307.79576738 -69.55317723 306.63596835 -69.55340537 305.4410239 C-69.55735276 286.6513018 -69.57480534 267.8616185 -69.5980939 249.07191138 C-69.62181712 229.77557019 -69.6342702 210.47924845 -69.63543582 191.18289244 C-69.63635204 180.35083314 -69.64209104 169.51882439 -69.66025543 158.68677902 C-69.67566951 149.46240702 -69.68076915 140.2381012 -69.67251733 131.01371877 C-69.66861546 126.30947158 -69.66951783 121.60535759 -69.68357468 116.90112686 C-69.69634122 112.58917522 -69.69509199 108.27745652 -69.68298396 103.96550508 C-69.68103173 102.41097022 -69.68408338 100.85641871 -69.69282833 99.30190723 C-69.77319519 84.04173216 -67.66408243 71.76852649 -57.27734375 60.0859375 C-48.93730155 52.00321058 -39.62903316 49.21320989 -28.3125 48.375 C-28.33344727 47.4778125 -28.35439453 46.580625 -28.37597656 45.65625 C-28.44457616 42.29400141 -28.49450294 38.93250765 -28.53222656 35.56982422 C-28.55221295 34.12081083 -28.57941197 32.67187675 -28.61425781 31.22314453 C-28.83470504 21.81523473 -28.89103743 14.5998121 -22.34765625 7.1328125 C-21.69667969 6.59398437 -21.04570313 6.05515625 -20.375 5.5 C-19.72660156 4.94570312 -19.07820313 4.39140625 -18.41015625 3.8203125 C-12.55932315 -0.21098778 -6.85669901 0.00867388 0 0 Z " fill="#F9DFBC" transform="translate(73.3125,-0.375)"/>
<path d="M0 0 C0.83789062 -0.00128906 1.67578125 -0.00257812 2.5390625 -0.00390625 C11.53822536 1.79344721 16.99585163 7.59601471 23.1875 13.9375 C24.03248047 14.77539062 24.87746094 15.61328125 25.74804688 16.4765625 C31.97467786 22.76748753 35.93268365 27.81238743 36.625 36.8125 C35.68033997 50.98240045 23.00759624 60.08005391 13.56616211 69.50073242 C12.51358318 70.55467032 11.46121624 71.60881996 10.40904236 72.66316223 C7.58086722 75.49585163 4.74959209 78.32542257 1.91756511 81.1542604 C-1.06170859 84.1309805 -4.03851691 87.11016452 -7.01573181 90.08894348 C-12.01105301 95.08607712 -17.00846335 100.08111419 -22.00708008 105.07495117 C-27.76946901 110.8318933 -33.52823888 116.59243679 -39.2851544 122.3548519 C-44.24917733 127.32342528 -49.21516185 132.29003177 -54.1827659 137.25502473 C-57.14057293 140.21128037 -60.09771833 143.16818934 -63.05308723 146.12688255 C-65.8309341 148.90763652 -68.61125111 151.6858977 -71.39342308 154.46232414 C-72.4084604 155.47604926 -73.42266647 156.49060756 -74.43593597 157.5060997 C-79.48759958 162.56781444 -84.56469626 167.52494034 -90.01622677 172.15686512 C-92.1746558 174.04275126 -94.07422661 176.13012693 -96 178.25 C-103.58248471 185.7556352 -110.38538319 186.85744713 -120.75 186.8125 C-123.71102565 186.76213119 -126.66528294 186.67189406 -129.625 186.5625 C-129.5935791 187.8628418 -129.5935791 187.8628418 -129.56152344 189.18945312 C-129.49290438 192.4397379 -129.44298549 195.68965057 -129.40527344 198.94042969 C-129.3852937 200.34094473 -129.3580998 201.74137782 -129.32324219 203.14160156 C-129.1011058 212.30146103 -129.06725511 219.38506172 -135.40625 226.5859375 C-136.25703125 227.25496094 -136.25703125 227.25496094 -137.125 227.9375 C-137.97578125 228.62972656 -137.97578125 228.62972656 -138.84375 229.3359375 C-142.7956302 232.05718834 -145.62644512 232.81910602 -150.45996094 232.86889648 C-151.6350824 232.88488388 -152.81020386 232.90087128 -154.02093506 232.91734314 C-155.28762024 232.92270584 -156.55430542 232.92806854 -157.859375 232.93359375 C-159.16650452 232.94262222 -160.47363403 232.9516507 -161.82037354 232.96095276 C-164.58763086 232.97742703 -167.35476747 232.98513953 -170.12207031 232.98803711 C-173.65057614 232.99340851 -177.17793034 233.03104084 -180.70611191 233.07678127 C-184.09052569 233.11387276 -187.47476511 233.1150746 -190.859375 233.12109375 C-192.11796326 233.14062607 -193.37655151 233.16015839 -194.67327881 233.18028259 C-202.9447952 233.13795645 -208.17442975 231.9134152 -214.137146 226.08421326 C-218.37616094 221.3510832 -219.86751326 217.06503096 -219.91552734 210.79760742 C-219.92828705 209.662603 -219.94104675 208.52759857 -219.95419312 207.35820007 C-219.95641876 206.14042374 -219.95864441 204.9226474 -219.9609375 203.66796875 C-219.9675943 202.40664627 -219.9742511 201.14532379 -219.98110962 199.84577942 C-219.99122948 197.17853674 -219.99679288 194.51170175 -219.99560547 191.84448242 C-219.99540261 188.44506678 -220.02267879 185.04649026 -220.05714989 181.64727306 C-220.08488616 178.38337072 -220.08357135 175.11947284 -220.0859375 171.85546875 C-220.10030853 170.64376511 -220.11467957 169.43206146 -220.12948608 168.18363953 C-220.08687893 160.25902263 -219.2065241 154.71290153 -213.87890625 148.5390625 C-213.04166016 147.87003906 -213.04166016 147.87003906 -212.1875 147.1875 C-211.35412109 146.49527344 -211.35412109 146.49527344 -210.50390625 145.7890625 C-206.44791622 143.14128523 -202.91402952 142.31576705 -198.10375977 142.37060547 C-196.48166344 142.37953323 -196.48166344 142.37953323 -194.82679749 142.38864136 C-193.66836838 142.40218658 -192.50993927 142.41573181 -191.31640625 142.4296875 C-188.85351438 142.42888104 -186.39062254 142.42621983 -183.92773438 142.421875 C-180.05174079 142.42384189 -176.1772535 142.43762102 -172.30151367 142.48339844 C-168.55556438 142.52243114 -164.81245073 142.51132635 -161.06640625 142.4921875 C-159.33179893 142.53072342 -159.33179893 142.53072342 -157.56214905 142.57003784 C-151.86612454 142.64932575 -151.86612454 142.64932575 -146.97224426 140.17523193 C-145.59615427 138.29066503 -145.59615427 138.29066503 -144.31306458 136.11160278 C-142.17426188 132.88185199 -139.56280945 130.26032297 -136.82250977 127.54882812 C-136.27308653 127.00037043 -135.72366329 126.45191273 -135.15759087 125.8868351 C-133.3814033 124.11818442 -131.59888864 122.35605437 -129.81640625 120.59375 C-128.56328304 119.34691119 -127.31068291 118.09954647 -126.05857849 116.85168457 C-122.77597054 113.58230927 -119.48783062 110.31856116 -116.19799805 107.05645752 C-110.93633712 101.83808469 -105.6814439 96.61292013 -100.42988396 91.38438416 C-98.60725396 89.57187098 -96.78119312 87.76287014 -94.95472717 85.95422363 C-89.99620649 81.03166068 -85.13529011 76.094802 -80.59864807 70.77560425 C-75.47211016 65.02708049 -69.93649987 59.64069545 -64.51171875 54.17578125 C-63.83556833 53.49430716 -63.15941792 52.81283306 -62.46277809 52.11070824 C-58.88830096 48.50965404 -55.31025866 44.91218154 -51.72973633 41.31713867 C-48.78321522 38.35725318 -45.84414493 35.39026023 -42.91137695 32.41674805 C-39.34831893 28.80421929 -35.77299896 25.2042647 -32.1886692 21.61284447 C-30.83334896 20.25084471 -29.48225943 18.88462033 -28.13568687 17.51397133 C-10.6368947 -0.27991828 -10.6368947 -0.27991828 0 0 Z " fill="#F3BD77" transform="translate(471.625,92.4375)"/>
<path d="M0 0 C1.60757172 -0.01913956 1.60757172 -0.01913956 3.24761963 -0.03866577 C4.97114655 -0.04200424 4.97114655 -0.04200424 6.72949219 -0.04541016 C8.51803619 -0.05539536 8.51803619 -0.05539536 10.3427124 -0.06558228 C12.86436421 -0.0757002 15.38604275 -0.08039956 17.90771484 -0.08007812 C21.74850114 -0.084441 25.58812862 -0.12074391 29.42871094 -0.15869141 C31.88313411 -0.16456189 34.33756272 -0.16852973 36.79199219 -0.17041016 C37.93291321 -0.18478119 39.07383423 -0.19915222 40.24932861 -0.21395874 C48.57841057 -0.16669331 54.83223171 1.25312706 61.33886719 6.60302734 C67.01464643 13.57612755 68.10533222 18.18698221 67.91699219 27.03662109 C67.9113324 28.04773453 67.90567261 29.05884796 67.89984131 30.1006012 C67.8775624 33.31023758 67.82738096 36.51873194 67.77636719 39.72802734 C67.75629126 41.91225594 67.73804241 44.09650215 67.72167969 46.28076172 C67.67772567 51.6177358 67.61089899 56.95404995 67.52636719 62.29052734 C70.40974503 62.16591603 73.29214886 62.03174854 76.17480469 61.89208984 C77.3918811 61.84097046 77.3918811 61.84097046 78.63354492 61.78881836 C88.99983111 61.26813732 96.43999168 57.99379715 103.52636719 50.29052734 C108.44853905 44.35572117 110.0002711 37.73489848 111.52636719 30.29052734 C111.85636719 30.29052734 112.18636719 30.29052734 112.52636719 30.29052734 C112.57644127 35.58836548 112.61239986 40.88606073 112.63623047 46.18408203 C112.64618285 47.98000493 112.65974961 49.7759121 112.67724609 51.57177734 C112.92813082 78.0179786 108.41023405 99.74387145 90.52636719 120.29052734 C90.01976562 120.89251953 89.51316406 121.49451172 88.99121094 122.11474609 C77.30672891 134.93480438 58.38294138 144.25392929 41.02893066 145.46478271 C38.35780604 145.51979778 35.6939684 145.51594572 33.02246094 145.48583984 C31.57662376 145.481595 31.57662376 145.481595 30.10157776 145.4772644 C27.05554213 145.46616582 24.00981232 145.44108098 20.96386719 145.41552734 C18.88509542 145.40548419 16.806319 145.39636068 14.72753906 145.38818359 C9.66036587 145.3662604 4.59341819 145.3318029 -0.47363281 145.29052734 C-0.47363281 144.96052734 -0.47363281 144.63052734 -0.47363281 144.29052734 C0.22761719 144.14357422 0.92886719 143.99662109 1.65136719 143.84521484 C12.21345341 141.34819989 18.80024846 136.52389379 24.52636719 127.29052734 C28.64358479 119.50641281 28.78004918 111.74457264 29.13183594 103.15185547 C29.16921875 102.33007812 29.20660156 101.50830078 29.24511719 100.66162109 C29.27541016 99.918396 29.30570312 99.1751709 29.33691406 98.40942383 C29.52726804 96.28045197 29.95205928 94.34623575 30.52636719 92.29052734 C29.51324463 92.28118164 28.50012207 92.27183594 27.45629883 92.26220703 C23.65948207 92.22201612 19.86345108 92.15618065 16.06713867 92.08300781 C14.43117447 92.05496547 12.79507899 92.03366853 11.15893555 92.01953125 C0.72006292 91.92396635 -7.80423224 91.8260478 -16.28613281 85.04052734 C-22.51552338 77.20929348 -23.07061328 70.86318354 -23.00488281 61.10302734 C-23.00870972 59.84594971 -23.01253662 58.58887207 -23.01647949 57.29370117 C-23.01919355 54.64396245 -23.01390693 51.99571541 -22.99511719 49.34619141 C-22.9723278 45.97030925 -22.98546649 42.5956995 -23.00940704 39.21986389 C-23.0274341 35.97254111 -23.01476864 32.72536681 -23.00488281 29.47802734 C-23.01297974 28.27573486 -23.02107666 27.07344238 -23.02941895 25.8347168 C-22.94265537 18.02599508 -22.17255384 12.09975417 -16.50878906 6.26708984 C-15.8578125 5.82107422 -15.20683594 5.37505859 -14.53613281 4.91552734 C-13.88773437 4.45404297 -13.23933594 3.99255859 -12.57128906 3.51708984 C-8.3739093 1.06275605 -4.86377142 0.03949577 0 0 Z " fill="#F9DFBD" transform="translate(274.4736328125,366.70947265625)"/>
<path d="M0 0 C3.44677 1.48343 5.67343301 3.43050188 8.30957031 6.08251953 C9.15013977 6.92324005 9.99070923 7.76396057 10.85675049 8.63015747 C12.20383087 9.99272171 12.20383087 9.99272171 13.578125 11.3828125 C14.5046991 12.31221649 15.43127319 13.24162048 16.38592529 14.19918823 C18.84315789 16.6640385 21.29432361 19.13483666 23.7442627 21.60693359 C26.24773809 24.13090765 28.75692063 26.64919388 31.265625 29.16796875 C36.18267525 34.10643597 41.09333788 39.051212 46 44 C45.03902509 45.12794057 44.0770897 46.25506289 43.11474609 47.38183594 C42.57917084 48.00958923 42.04359558 48.63734253 41.49179077 49.28411865 C39.95274673 51.05435146 38.38352825 52.69678215 36.625 54.25 C35.87089844 54.93835938 35.87089844 54.93835938 35.1015625 55.640625 C28.55044713 59.87814944 22.57971563 60.41454217 15 60.1875 C14.12988281 60.17396484 13.25976562 60.16042969 12.36328125 60.14648438 C10.24191373 60.11151678 8.12087026 60.0577253 6 60 C6.0314209 61.3003418 6.0314209 61.3003418 6.06347656 62.62695312 C6.13209562 65.8772379 6.18201451 69.12715057 6.21972656 72.37792969 C6.2397063 73.77844473 6.2669002 75.17887782 6.30175781 76.57910156 C6.5238942 85.73896103 6.55774489 92.82256172 0.21875 100.0234375 C-0.63203125 100.69246094 -0.63203125 100.69246094 -1.5 101.375 C-2.35078125 102.06722656 -2.35078125 102.06722656 -3.21875 102.7734375 C-7.1706302 105.49468834 -10.00144512 106.25660602 -14.83496094 106.30639648 C-16.0100824 106.32238388 -17.18520386 106.33837128 -18.39593506 106.35484314 C-19.66262024 106.36020584 -20.92930542 106.36556854 -22.234375 106.37109375 C-23.54150452 106.38012222 -24.84863403 106.3891507 -26.19537354 106.39845276 C-28.96263086 106.41492703 -31.72976747 106.42263953 -34.49707031 106.42553711 C-38.02557614 106.43090851 -41.55293034 106.46854084 -45.08111191 106.51428127 C-48.46552569 106.55137276 -51.84976511 106.5525746 -55.234375 106.55859375 C-56.49296326 106.57812607 -57.75155151 106.59765839 -59.04827881 106.61778259 C-67.3197952 106.57545645 -72.54942975 105.3509152 -78.512146 99.52171326 C-82.75116094 94.7885832 -84.24251326 90.50253096 -84.29052734 84.23510742 C-84.30328705 83.100103 -84.31604675 81.96509857 -84.32919312 80.79570007 C-84.33141876 79.57792374 -84.33364441 78.3601474 -84.3359375 77.10546875 C-84.3425943 75.84414627 -84.3492511 74.58282379 -84.35610962 73.28327942 C-84.36622948 70.61603674 -84.37179288 67.94920175 -84.37060547 65.28198242 C-84.37040261 61.88256678 -84.39767879 58.48399026 -84.43214989 55.08477306 C-84.45988616 51.82087072 -84.45857135 48.55697284 -84.4609375 45.29296875 C-84.47530853 44.08126511 -84.48967957 42.86956146 -84.50448608 41.62113953 C-84.46187893 33.69652263 -83.5815241 28.15040153 -78.25390625 21.9765625 C-77.69574219 21.53054687 -77.13757813 21.08453125 -76.5625 20.625 C-76.00691406 20.16351563 -75.45132812 19.70203125 -74.87890625 19.2265625 C-70.82291622 16.57878523 -67.28902952 15.75326705 -62.47875977 15.80810547 C-60.85666344 15.81703323 -60.85666344 15.81703323 -59.20179749 15.82614136 C-58.04336838 15.83968658 -56.88493927 15.85323181 -55.69140625 15.8671875 C-53.22851438 15.86638104 -50.76562254 15.86371983 -48.30273438 15.859375 C-44.42674079 15.86134189 -40.5522535 15.87512102 -36.67651367 15.92089844 C-32.93056438 15.95993114 -29.18745073 15.94882635 -25.44140625 15.9296875 C-23.70679893 15.96822342 -23.70679893 15.96822342 -21.93714905 16.00753784 C-15.97637915 16.05433139 -15.97637915 16.05433139 -10.97137451 13.23809814 C-9.45736925 11.22302556 -8.2242218 9.19883711 -7 7 C-5.74643025 5.63078729 -4.46417557 4.28560855 -3.125 3 C-2.52945313 2.4225 -1.93390625 1.845 -1.3203125 1.25 C-0.66675781 0.63125 -0.66675781 0.63125 0 0 Z " fill="#626B84" transform="translate(336,219)"/>
<path d="M0 0 C0.66 0 1.32 0 2 0 C6.450462 13.99955584 8.46757864 29.33744854 2 43 C-10.66240839 62.69564546 -30.99310289 78.8973824 -48.39978027 94.27088928 C-49.32229898 95.08929983 -49.32229898 95.08929983 -50.26345444 95.92424393 C-51.40149493 96.93052184 -52.54477883 97.93091872 -53.69458389 98.92373276 C-56.31124046 101.23532797 -58.24172554 103.36839241 -60.16638184 106.30158997 C-62 109 -62 109 -65.29980469 109.68115234 C-66.57758789 109.64973145 -67.85537109 109.61831055 -69.171875 109.5859375 C-69.8542926 109.57744781 -70.53671021 109.56895813 -71.23980713 109.56021118 C-73.4115038 109.52672057 -75.57943383 109.45147242 -77.75 109.375 C-79.22520663 109.34489374 -80.7004717 109.31751905 -82.17578125 109.29296875 C-85.78507044 109.22695085 -89.39216742 109.12346917 -93 109 C-91.34180779 93.63733685 -83.62936504 84.28758412 -72.87744141 73.66625977 C-72.09773987 72.88787247 -71.31803833 72.10948517 -70.51470947 71.30751038 C-67.96491854 68.76415316 -65.40822388 66.22785522 -62.8515625 63.69140625 C-61.0698325 61.91595306 -59.28862093 60.13997945 -57.50790405 58.36351013 C-53.31605733 54.18356074 -49.12012953 50.00774129 -44.92180097 45.83430475 C-36.94063979 37.90036565 -28.96680755 29.95908019 -20.99686813 22.01386833 C-18.37728173 19.40452492 -15.75432328 16.79860629 -13.13101196 14.19300842 C-11.53595862 12.60477875 -9.94101247 11.01644143 -8.34619141 9.42797852 C-7.61272491 8.70124939 -6.87925842 7.97452026 -6.12356567 7.22576904 C-5.4591748 6.56289383 -4.79478394 5.90001862 -4.11026001 5.21705627 C-3.53032602 4.64064172 -2.95039204 4.06422716 -2.35288429 3.4703455 C-0.89658512 2.02360218 -0.89658512 2.02360218 0 0 Z " fill="#F9E0BD" transform="translate(385,126)"/>
<path d="M0 0 C0.33 0 0.66 0 1 0 C1.029729 0.8818396 1.029729 0.8818396 1.06005859 1.78149414 C1.58884463 36.39148467 1.58884463 36.39148467 16.52734375 66.63671875 C16.99269531 67.06597656 17.45804687 67.49523437 17.9375 67.9375 C18.618125 68.618125 19.29875 69.29875 20 70 C19.88598229 74.25355855 16.68231296 76.71571564 13.828125 79.5 C13.30869324 80.01755859 12.78926147 80.53511719 12.25408936 81.06835938 C11.15465675 82.16107783 10.05163624 83.25019653 8.9453125 84.3359375 C7.26308388 85.9871573 5.59162108 87.64866801 3.921875 89.3125 C2.84957518 90.37562253 1.77667735 91.4381423 0.703125 92.5 C0.20709778 92.99177734 -0.28892944 93.48355469 -0.79998779 93.99023438 C-3.72877519 96.86001803 -6.75568468 99.49323062 -10 102 C-13.44677 100.51657 -15.67343301 98.56949812 -18.30957031 95.91748047 C-19.15013977 95.07675995 -19.99070923 94.23603943 -20.85675049 93.36984253 C-22.20383087 92.00727829 -22.20383087 92.00727829 -23.578125 90.6171875 C-24.5046991 89.68778351 -25.43127319 88.75837952 -26.38592529 87.80081177 C-28.84315789 85.3359615 -31.29432361 82.86516334 -33.7442627 80.39306641 C-36.24773809 77.86909235 -38.75692063 75.35080612 -41.265625 72.83203125 C-46.18267525 67.89356403 -51.09333788 62.948788 -56 58 C-51.07405355 52.05194355 -45.73808865 46.62431861 -40.25390625 41.19140625 C-38.83356758 39.77685479 -37.41323184 38.36230037 -35.99306393 36.94757748 C-33.01951542 33.98707881 -30.04140774 31.03116683 -27.06408691 28.07446289 C-24.60716381 25.63420166 -22.15128438 23.19291069 -19.69798279 20.74900818 C-17.86609267 18.92457448 -16.03195639 17.10239238 -14.19520569 15.28285217 C-9.69626656 10.80158373 -5.36953282 6.2617904 -1.28160095 1.40049744 C-0.85867264 0.93833328 -0.43574432 0.47616913 0 0 Z " fill="#F09A60" transform="translate(393,161)"/>
<path d="M0 0 C1.60757172 -0.01913956 1.60757172 -0.01913956 3.24761963 -0.03866577 C4.97114655 -0.04200424 4.97114655 -0.04200424 6.72949219 -0.04541016 C8.51803619 -0.05539536 8.51803619 -0.05539536 10.3427124 -0.06558228 C12.86436421 -0.0757002 15.38604275 -0.08039956 17.90771484 -0.08007812 C21.74850114 -0.084441 25.58812862 -0.12074391 29.42871094 -0.15869141 C31.88313411 -0.16456189 34.33756272 -0.16852973 36.79199219 -0.17041016 C37.93291321 -0.18478119 39.07383423 -0.19915222 40.24932861 -0.21395874 C48.57841057 -0.16669331 54.83223171 1.25312706 61.33886719 6.60302734 C67.07372771 13.64871313 68.10315253 18.31091154 67.91699219 27.25537109 C67.9113324 28.28868057 67.90567261 29.32199005 67.89984131 30.38661194 C67.87755767 33.66756691 67.82737502 36.94740578 67.77636719 40.22802734 C67.75629188 42.46043338 67.73804292 44.69285664 67.72167969 46.92529297 C67.67771933 52.38074805 67.61088761 57.83555793 67.52636719 63.29052734 C60.02636719 64.79052734 60.02636719 64.79052734 52.52636719 66.29052734 C52.52050095 65.7083696 52.5146347 65.12621185 52.5085907 64.52641296 C52.44473185 58.47553774 52.36033214 52.4251981 52.26391602 46.37475586 C52.23063033 44.11571304 52.20260985 41.85658632 52.17993164 39.59741211 C52.14645292 36.35282586 52.09414001 33.10901102 52.03808594 29.86474609 C52.03169601 28.85216232 52.02530609 27.83957855 52.01872253 26.79631042 C51.99892838 25.85556168 51.97913422 24.91481293 51.95874023 23.94555664 C51.94763718 23.11726852 51.93653412 22.28898041 51.9250946 21.43559265 C51.4216003 18.72690468 50.7911989 17.84882657 48.52636719 16.29052734 C46.14933266 15.8495541 46.14933266 15.8495541 43.45996094 15.93408203 C42.4287915 15.93108093 41.39762207 15.92807983 40.33520508 15.92498779 C38.66639282 15.943508 38.66639282 15.943508 36.96386719 15.96240234 C35.82103271 15.96427551 34.67819824 15.96614868 33.50073242 15.96807861 C31.08314092 15.97480469 28.66556041 15.98873008 26.24804688 16.00927734 C22.54123861 16.04040247 18.83485561 16.05024489 15.12792969 16.05615234 C12.78157032 16.06532344 10.43521529 16.07569955 8.08886719 16.08740234 C6.42005493 16.09377716 6.42005493 16.09377716 4.7175293 16.10028076 C3.68635986 16.10988831 2.65519043 16.11949585 1.59277344 16.12939453 C0.68470947 16.13622253 -0.22335449 16.14305054 -1.15893555 16.15008545 C-3.63305283 16.20022704 -3.63305283 16.20022704 -6.47363281 17.29052734 C-6.52420905 25.08672322 -6.55931395 32.88287704 -6.58349609 40.67919922 C-6.5935737 43.33318665 -6.60723594 45.98716294 -6.62451172 48.64111328 C-6.64868273 52.44875842 -6.66009816 56.25625718 -6.66894531 60.06396484 C-6.67926788 61.25670013 -6.68959045 62.44943542 -6.70022583 63.67831421 C-6.70045242 65.32979965 -6.70045242 65.32979965 -6.70068359 67.01464844 C-6.70512482 67.98727631 -6.70956604 68.95990417 -6.71414185 69.96200562 C-6.70107876 72.48355838 -6.70107876 72.48355838 -4.47363281 74.29052734 C-2.45529338 74.6203034 -2.45529338 74.6203034 -0.11572266 74.609375 C0.78506012 74.62924469 1.6858429 74.64911438 2.61392212 74.66958618 C3.58791962 74.68113739 4.56191711 74.6926886 5.56542969 74.70458984 C6.56142181 74.72395599 7.55741394 74.74332214 8.58358765 74.76327515 C11.77275969 74.823177 14.96196762 74.86949873 18.15136719 74.91552734 C20.31023732 74.95369736 22.46909206 74.9927485 24.62792969 75.03271484 C29.92727253 75.12888704 35.22670762 75.21390323 40.52636719 75.29052734 C40.04425781 76.03818359 39.56214844 76.78583984 39.06542969 77.55615234 C38.43378906 78.54099609 37.80214844 79.52583984 37.15136719 80.54052734 C36.52488281 81.51505859 35.89839844 82.48958984 35.25292969 83.49365234 C33.87501867 85.7257435 32.64324077 87.92140157 31.52636719 90.29052734 C26.24278808 90.36500851 20.95951855 90.41928529 15.67553711 90.45532227 C13.88023552 90.4703545 12.08497031 90.49078591 10.28979492 90.5168457 C7.70059193 90.5534752 5.11187691 90.57030945 2.52246094 90.58349609 C1.32984901 90.60672188 1.32984901 90.60672188 0.11314392 90.63041687 C-6.39589057 90.63235687 -11.00348831 89.30111008 -16.16113281 85.10302734 C-22.55579847 77.32573127 -23.07083234 70.89571156 -23.00488281 61.10302734 C-23.00870972 59.84594971 -23.01253662 58.58887207 -23.01647949 57.29370117 C-23.01919355 54.64396245 -23.01390693 51.99571541 -22.99511719 49.34619141 C-22.9723278 45.97030925 -22.98546649 42.5956995 -23.00940704 39.21986389 C-23.0274341 35.97254111 -23.01476864 32.72536681 -23.00488281 29.47802734 C-23.01297974 28.27573486 -23.02107666 27.07344238 -23.02941895 25.8347168 C-22.94265537 18.02599508 -22.17255384 12.09975417 -16.50878906 6.26708984 C-15.8578125 5.82107422 -15.20683594 5.37505859 -14.53613281 4.91552734 C-13.88773437 4.45404297 -13.23933594 3.99255859 -12.57128906 3.51708984 C-8.3739093 1.06275605 -4.86377142 0.03949577 0 0 Z " fill="#636C85" transform="translate(274.4736328125,366.70947265625)"/>
<path d="M0 0 C1.00740234 -0.02449219 2.01480469 -0.04898438 3.05273438 -0.07421875 C10.74373442 -0.10428129 16.09641888 1.22811184 21.9296875 6.33984375 C22.46851563 6.99082031 23.00734375 7.64179687 23.5625 8.3125 C24.39394531 9.28509766 24.39394531 9.28509766 25.2421875 10.27734375 C28.52416063 15.04063989 29.01566869 19.49762909 29.05859375 25.16796875 C29.07213646 26.2870739 29.07213646 26.2870739 29.08595276 27.42878723 C29.10041851 29.004649 29.10933284 30.58057033 29.11303711 32.15649414 C29.12487985 34.53833549 29.17404856 36.91753691 29.22460938 39.29882812 C29.32724051 48.89251208 28.79551878 56.86788397 21.93139648 64.26831055 C15.5935803 70.31365625 8.88514713 71.94204913 0.375 71.875 C-0.46442139 71.86927979 -1.30384277 71.86355957 -2.16870117 71.85766602 C-10.72675415 71.61130159 -16.79035059 69.33884575 -22.75 63.0625 C-29.20978638 55.40717106 -28.81182504 46.12218863 -28.75854492 36.68457031 C-28.75001833 34.37995476 -28.77888261 32.07781025 -28.81054688 29.7734375 C-28.85478132 20.81235233 -28.51801772 14.1741395 -22.34765625 7.1328125 C-21.69667969 6.59398437 -21.04570312 6.05515625 -20.375 5.5 C-19.72660156 4.94570312 -19.07820313 4.39140625 -18.41015625 3.8203125 C-12.55932315 -0.21098778 -6.85669901 0.00867388 0 0 Z " fill="#E26E7E" transform="translate(317.3125,-0.375)"/>
<path d="M0 0 C1.00740234 -0.02449219 2.01480469 -0.04898438 3.05273438 -0.07421875 C10.74571302 -0.10428902 16.05842975 1.25172352 21.9296875 6.3046875 C22.46851563 6.94664062 23.00734375 7.58859375 23.5625 8.25 C24.39394531 9.20519531 24.39394531 9.20519531 25.2421875 10.1796875 C29.55044736 16.7235849 29.02687956 24.0091116 29.00317383 31.52294922 C29.00002917 33.60568368 29.02345511 35.68697345 29.04882812 37.76953125 C29.09626303 47.58518401 28.74770954 57.45613906 21.5078125 64.8359375 C12.90703085 72.10784301 3.69644022 72.55023176 -7.16162109 71.66162109 C-14.35560489 70.70296763 -19.47819967 66.93982755 -24.05859375 61.51171875 C-28.78227146 53.46233649 -28.80979856 45.76323444 -28.75854492 36.68457031 C-28.75001833 34.37995476 -28.77888261 32.07781025 -28.81054688 29.7734375 C-28.85478132 20.81235233 -28.51801772 14.1741395 -22.34765625 7.1328125 C-21.69667969 6.59398437 -21.04570312 6.05515625 -20.375 5.5 C-19.72660156 4.94570312 -19.07820312 4.39140625 -18.41015625 3.8203125 C-12.55932315 -0.21098778 -6.85669901 0.00867388 0 0 Z " fill="#E68A97" transform="translate(195.3125,-0.375)"/>
<path d="M0 0 C1.00740234 -0.02449219 2.01480469 -0.04898438 3.05273438 -0.07421875 C10.55174163 -0.10353083 15.89113663 1.17531457 21.67578125 6.05078125 C22.11277344 6.59089844 22.54976562 7.13101562 23 7.6875 C23.44988281 8.21988281 23.89976563 8.75226562 24.36328125 9.30078125 C27.79452803 14.67538904 29.06796813 19.12413102 29.0859375 25.48828125 C29.08880768 26.14273727 29.09167786 26.7971933 29.09463501 27.47148132 C29.0966624 28.84712598 29.09122594 30.22280034 29.07861328 31.59838867 C29.06261654 33.6723899 29.0784645 35.74441974 29.09765625 37.81835938 C29.11385528 47.60059396 28.71839154 57.4860236 21.5078125 64.8359375 C12.90703085 72.10784301 3.69644022 72.55023176 -7.16162109 71.66162109 C-14.35560489 70.70296763 -19.47819967 66.93982755 -24.05859375 61.51171875 C-28.78227146 53.46233649 -28.80979856 45.76323444 -28.75854492 36.68457031 C-28.75001833 34.37995476 -28.77888261 32.07781025 -28.81054688 29.7734375 C-28.85478132 20.81235233 -28.51801772 14.1741395 -22.34765625 7.1328125 C-21.69667969 6.59398437 -21.04570313 6.05515625 -20.375 5.5 C-19.72660156 4.94570312 -19.07820313 4.39140625 -18.41015625 3.8203125 C-12.55932315 -0.21098778 -6.85669901 0.00867388 0 0 Z " fill="#E26E7E" transform="translate(73.3125,-0.375)"/>
<path d="M0 0 C1.54664085 -0.01407143 1.54664085 -0.01407143 3.12452698 -0.02842712 C4.2319072 -0.01719315 5.33928741 -0.00595917 6.48022461 0.00561523 C7.62164413 0.00416 8.76306366 0.00270477 9.93907166 0.00120544 C12.35068313 0.00286477 14.76230515 0.01442959 17.17382812 0.03515625 C20.87211897 0.06412713 24.56897835 0.05576171 28.26733398 0.04272461 C30.60913785 0.04896136 32.95093718 0.05735179 35.29272461 0.06811523 C36.40212906 0.0651796 37.51153351 0.06224396 38.65455627 0.05921936 C40.19646889 0.07824562 40.19646889 0.07824562 41.76953125 0.09765625 C43.12710289 0.10576073 43.12710289 0.10576073 44.51210022 0.11402893 C46.82006836 0.50170898 46.82006836 0.50170898 48.60452271 1.73248291 C50.16712878 4.00685525 50.24234781 5.46250919 50.31933594 8.21337891 C50.35138626 9.16834763 50.38343658 10.12331635 50.41645813 11.10722351 C50.44028816 12.65407585 50.44028816 12.65407585 50.46459961 14.23217773 C50.4840715 15.2965657 50.5035434 16.36095367 50.52360535 17.45759583 C50.55634466 19.7128319 50.58013522 21.96821284 50.59570312 24.22363281 C50.63226614 27.66079833 50.73812018 31.09151769 50.84545898 34.52709961 C51.11796845 49.5583694 51.11796845 49.5583694 48.36035156 55.81201172 C43.12599374 61.22186988 35.99418338 61.15778727 28.88647461 61.38842773 C25.78042996 61.39738165 22.68215628 61.34993047 19.57714844 61.27001953 C16.366169 61.18879414 13.15893802 61.16751109 9.94702148 61.15600586 C7.90596356 61.13277122 5.8649403 61.10619838 3.82397461 61.07592773 C2.86463516 61.06631516 1.90529572 61.05670258 0.91688538 61.04679871 C-0.41579124 61.0084063 -0.41579124 61.0084063 -1.77539062 60.96923828 C-2.5557518 60.95177048 -3.33611298 60.93430267 -4.14012146 60.91630554 C-6.77064779 60.38164444 -7.64703572 59.69953719 -9.17993164 57.50170898 C-9.56761169 55.15577698 -9.56761169 55.15577698 -9.58398438 52.359375 C-9.59666855 51.31141251 -9.60935272 50.26345001 -9.62242126 49.18373108 C-9.61948563 48.05245285 -9.61654999 46.92117462 -9.61352539 45.75561523 C-9.61876724 44.59295639 -9.62400909 43.43029755 -9.62940979 42.23240662 C-9.63583741 39.77197061 -9.6344835 37.31150391 -9.62597656 34.85107422 C-9.61747262 31.08237044 -9.64621066 27.31518456 -9.67797852 23.54663086 C-9.67959069 21.15795944 -9.67901269 18.76928533 -9.67602539 16.38061523 C-9.68725937 15.25136124 -9.69849335 14.12210724 -9.71006775 12.95863342 C-9.7006868 11.90751877 -9.69130585 10.85640411 -9.68164062 9.7734375 C-9.68147446 8.84982925 -9.68130829 7.92622101 -9.68113708 6.97462463 C-8.58293106 1.55614624 -5.17515199 0.00094933 0 0 Z " fill="#F9EFCE" transform="translate(276.179931640625,381.498291015625)"/>
<path d="M0 0 C1.53113434 0.00045319 1.53113434 0.00045319 3.09320068 0.00091553 C4.18811829 0.02156067 5.28303589 0.04220581 6.41113281 0.06347656 C7.53747131 0.06913635 8.66380981 0.07479614 9.82427979 0.08062744 C13.42137164 0.10301611 17.01746707 0.15321943 20.61425781 0.20410156 C23.05304551 0.22416324 25.49184882 0.24241458 27.93066406 0.25878906 C33.90886856 0.30288913 39.886492 0.36982693 45.86425781 0.45410156 C45.87884033 1.03377686 45.89342285 1.61345215 45.90844727 2.21069336 C45.9832431 4.85497709 46.07979679 7.49804158 46.17675781 10.14160156 C46.2105957 11.50961914 46.2105957 11.50961914 46.24511719 12.90527344 C46.4624055 18.3374812 46.82530538 22.41514913 50.86425781 26.45410156 C51.10678606 30.67446061 51.09279102 34.90063976 51.10449219 39.12719727 C51.11417124 41.24763611 51.14516814 43.3670947 51.17675781 45.48730469 C51.18329046 46.8369083 51.18853991 48.18651886 51.19238281 49.53613281 C51.20640137 51.3804187 51.20640137 51.3804187 51.22070312 53.26196289 C50.82548624 56.80131954 50.32990979 57.9529486 47.86425781 60.45410156 C45.47363281 60.95530701 45.47363281 60.95530701 42.61425781 60.95581055 C41.54304688 60.9651915 40.47183594 60.97457245 39.36816406 60.98423767 C37.63373047 60.9673867 37.63373047 60.9673867 35.86425781 60.95019531 C34.67703125 60.95165054 33.48980469 60.95310577 32.26660156 60.9546051 C29.75485787 60.95294406 27.24310421 60.94136007 24.73144531 60.9206543 C20.87944453 60.89171565 17.02882034 60.90003895 13.17675781 60.91308594 C10.7392511 60.9068484 8.30174875 60.89845734 5.86425781 60.88769531 C4.70796875 60.89063095 3.55167969 60.89356659 2.36035156 60.89659119 C1.28914063 60.88390701 0.21792969 60.87122284 -0.88574219 60.8581543 C-1.82933594 60.85275131 -2.77292969 60.84734833 -3.74511719 60.84178162 C-6.13574219 60.45410156 -6.13574219 60.45410156 -7.93861389 59.25024414 C-9.54722062 56.83672919 -9.52285931 55.20431653 -9.53979492 52.31176758 C-9.5524791 51.26380508 -9.56516327 50.21584259 -9.57823181 49.13612366 C-9.57529617 48.00484543 -9.57236053 46.8735672 -9.56933594 45.70800781 C-9.57457779 44.54534897 -9.57981964 43.38269012 -9.58522034 42.18479919 C-9.59164795 39.72436319 -9.59029404 37.26389649 -9.58178711 34.8034668 C-9.57328317 31.03476302 -9.60202121 27.26757714 -9.63378906 23.49902344 C-9.63540124 21.11035202 -9.63482324 18.72167791 -9.63183594 16.33300781 C-9.64306992 15.20375381 -9.65430389 14.07449982 -9.6658783 12.911026 C-9.65649734 11.85991135 -9.64711639 10.80879669 -9.63745117 9.72583008 C-9.637285 8.80222183 -9.63711884 7.87861359 -9.63694763 6.92701721 C-8.54267683 1.52795496 -5.16630934 -0.05115158 0 0 Z " fill="#FAF0CE" transform="translate(276.1357421875,249.5458984375)"/>
<path d="M0 0 C0.83789062 -0.00128906 1.67578125 -0.00257812 2.5390625 -0.00390625 C11.53822536 1.79344721 16.99585163 7.59601471 23.1875 13.9375 C24.03248047 14.77539062 24.87746094 15.61328125 25.74804688 16.4765625 C31.97467786 22.76748753 35.93268365 27.81238743 36.625 36.8125 C35.97134311 46.6173534 31.01292177 51.85132097 24.375 58.5625 C23.72047852 59.22540039 23.06595703 59.88830078 22.39160156 60.57128906 C17.74650567 65.26247973 13.07120175 69.92250394 8.375 74.5625 C4.72211766 72.52911572 1.89555177 70.32788894 -1.0480957 67.36645508 C-2.30883659 66.10548759 -2.30883659 66.10548759 -3.595047 64.81904602 C-4.4879393 63.91583115 -5.3808316 63.01261627 -6.30078125 62.08203125 C-7.2259404 61.15404221 -8.15109955 60.22605316 -9.10429382 59.26994324 C-11.55329885 56.81333425 -13.9962356 54.35077707 -16.43792725 51.88690186 C-18.93477553 49.36952512 -21.43735771 46.85786272 -23.93945312 44.34570312 C-28.84023963 39.42352391 -33.73463453 34.49503245 -38.625 29.5625 C-34.04720704 24.16888515 -29.32889435 18.98957964 -24.375 13.9375 C-23.67503906 13.20015625 -22.97507812 12.4628125 -22.25390625 11.703125 C-16.2785242 5.62978587 -8.97248679 -0.23611807 0 0 Z " fill="#E68A96" transform="translate(471.625,92.4375)"/>
<path d="M0 0 C1.13547272 -0.00394272 2.27094543 -0.00788544 3.44082642 -0.01194763 C7.19334043 -0.01865943 10.94463771 0.01050953 14.69702148 0.04077148 C17.30345931 0.04502131 19.90990092 0.04735013 22.51634216 0.0478363 C27.97801168 0.0524608 33.43933202 0.07607909 38.90087891 0.11230469 C45.21242666 0.15405715 51.52366024 0.17162094 57.83533818 0.17492443 C63.91210961 0.17817874 69.98877032 0.19328898 76.06550407 0.21491814 C78.64952894 0.2238078 81.23356218 0.23053417 83.81759834 0.23507881 C87.42541709 0.24410489 91.03289759 0.26648164 94.640625 0.29296875 C96.24832512 0.29396576 96.24832512 0.29396576 97.88850403 0.29498291 C98.87123291 0.30495804 99.85396179 0.31493317 100.86647034 0.32521057 C101.71908731 0.32986108 102.57170427 0.33451159 103.45015812 0.33930302 C106.01718748 0.62887134 107.58722783 1.2045286 109.75561523 2.59936523 C111.75561523 5.59936523 111.75561523 5.59936523 111.63061523 9.09936523 C110.75561523 12.59936523 110.75561523 12.59936523 109.01166534 14.29346466 C106.37005122 15.82254657 104.82045452 15.98073973 101.78381348 15.99377441 C100.28230995 16.0107991 100.28230995 16.0107991 98.75047302 16.02816772 C97.65840042 16.02523712 96.56632782 16.02230652 95.44116211 16.01928711 C94.28632828 16.02775665 93.13149445 16.0362262 91.94166565 16.04495239 C88.1191206 16.06837802 84.29697668 16.06934327 80.47436523 16.06811523 C78.49191626 16.07341944 76.50946714 16.07872974 74.52702093 16.0849824 C68.29507609 16.10421059 62.0632652 16.10710206 55.83129883 16.1003418 C49.40315579 16.09369713 42.97558601 16.11658294 36.54755926 16.15365553 C31.02640903 16.18434187 25.50544335 16.19571389 19.98420954 16.19181871 C16.68746717 16.18975047 13.39127148 16.19747065 10.09458923 16.2197113 C6.41928247 16.24177922 2.74536926 16.23225954 -0.92993164 16.21459961 C-2.56804054 16.23449448 -2.56804054 16.23449448 -4.23924255 16.25479126 C-11.60169684 16.17234961 -11.60169684 16.17234961 -14.91638184 13.21716309 C-16.43235549 10.22883189 -16.98265427 8.88056303 -16.24438477 5.59936523 C-11.85854594 -0.66875362 -7.01195267 -0.09723283 0 0 Z " fill="#646C85" transform="translate(73.244384765625,121.400634765625)"/>
<path d="M0 0 C1.12265259 -0.0087616 2.24530518 -0.01752319 3.40197754 -0.02655029 C7.10692172 -0.04852749 10.81066902 -0.03399593 14.515625 -0.01708984 C17.09342681 -0.02045842 19.67122707 -0.02531138 22.24902344 -0.03158569 C27.64925743 -0.03895484 33.04904295 -0.02872785 38.44921875 -0.00488281 C44.68314432 0.02232671 50.91625216 0.01351162 57.15015793 -0.01401484 C63.15917968 -0.03948128 69.16780295 -0.03673217 75.17687988 -0.02210617 C77.72855748 -0.01877173 80.28025597 -0.02286048 82.83190918 -0.03450394 C86.39891771 -0.04720868 89.9643582 -0.02783734 93.53125 0 C94.58493774 -0.01012115 95.63862549 -0.02024231 96.72424316 -0.03067017 C101.29981113 0.03545349 104.74514716 0.10796368 108.46386719 2.96084595 C110.765625 5.64697266 110.765625 5.64697266 110.828125 9.27197266 C109.79002485 12.56946724 109.42403814 13.63891389 106.765625 15.64697266 C104.53357029 16.0300827 104.53357029 16.0300827 101.87611389 16.04138184 C100.86807205 16.05273163 99.86003021 16.06408142 98.82144165 16.07577515 C97.71642303 16.07284454 96.61140442 16.06991394 95.47290039 16.06689453 C94.30845901 16.07536407 93.14401764 16.08383362 91.94429016 16.09255981 C88.08384365 16.11601513 84.22379371 16.11694991 80.36328125 16.11572266 C78.36288204 16.1210263 76.3624827 16.12633584 74.36208624 16.13258982 C68.0711877 16.15183057 61.78042186 16.15470532 55.48950195 16.14794922 C48.99946574 16.14130754 42.50999776 16.16417551 36.02007681 16.20126295 C30.44799205 16.23194997 24.87609018 16.24332112 19.30392259 16.23942614 C15.97586808 16.23735751 12.64835518 16.24508199 9.32036018 16.26731873 C5.60902622 16.28938689 1.8990723 16.27986636 -1.81225586 16.26220703 C-2.91525024 16.27547028 -4.01824463 16.28873352 -5.15466309 16.30239868 C-12.59102542 16.2199416 -12.59102542 16.2199416 -15.90919495 13.26477051 C-17.43301426 10.25457509 -18.0581539 8.94208827 -17.234375 5.64697266 C-12.0694662 -0.1343447 -7.47509791 -0.07180175 0 0 Z " fill="#656D85" transform="translate(74.234375,253.35302734375)"/>
<path d="M0 0 C1.1645874 -0.0071553 2.3291748 -0.01431061 3.52905273 -0.02168274 C7.38434903 -0.03861196 11.2384895 -0.0191405 15.09375 0.00219727 C17.76889607 0.00136896 20.44400171 -0.00103335 23.11914062 -0.00511169 C28.72800036 -0.00963201 34.33652653 0.00623286 39.9453125 0.03417969 C46.42794355 0.06623176 52.90997303 0.06621595 59.39264679 0.04896492 C65.63122595 0.03309562 71.86958476 0.03983583 78.1081543 0.05690193 C80.76195786 0.06209244 83.41577876 0.06159147 86.06958008 0.05535698 C89.77593494 0.04991875 93.48126215 0.07023765 97.1875 0.09765625 C98.28892334 0.09113037 99.39034668 0.08460449 100.52514648 0.07788086 C101.53456299 0.09060532 102.54397949 0.10332977 103.58398438 0.11643982 C104.46002319 0.11924674 105.33606201 0.12205366 106.23864746 0.12494564 C109.41020186 0.80657508 110.63141191 2.09335421 112.59375 4.63110352 C112.66499183 8.62064606 112.33957936 10.75924934 109.72338867 13.81750488 C105.04776855 16.52698644 100.7720044 16.18932457 95.45703125 16.14868164 C94.3329184 16.15569092 93.20880554 16.1627002 92.05062866 16.16992188 C88.33558435 16.18752407 84.62130204 16.17587039 80.90625 16.16235352 C78.32462416 16.16504777 75.74299931 16.16892963 73.16137695 16.1739502 C67.75103152 16.17984831 62.34097237 16.17165369 56.93066406 16.15258789 C50.6815034 16.13081988 44.43286479 16.13787167 38.18371677 16.15989351 C32.16459012 16.1802533 26.14571826 16.17807224 20.1265564 16.16636658 C17.56847053 16.16369689 15.01037135 16.16697749 12.45230103 16.17628479 C8.87799713 16.18643533 5.30469777 16.17096834 1.73046875 16.14868164 C0.67161469 16.15677856 -0.38723938 16.16487549 -1.47817993 16.17321777 C-5.93268959 16.12172215 -8.64439301 16.08115126 -12.53588867 13.78234863 C-14.97325163 10.97895172 -15.48201642 9.34365827 -15.40625 5.63110352 C-12.13326404 -1.09215772 -6.59081408 -0.06996503 0 0 Z " fill="#656E86" transform="translate(72.40625,386.368896484375)"/>
<path d="M0 0 C16.83 0 33.66 0 51 0 C51.33 6.6 51.66 13.2 52 20 C53.76851036 23.18074165 53.76851036 23.18074165 56 26 C56.24221218 30.23871318 56.22851631 34.48315981 56.24023438 38.72802734 C56.24992926 40.85944804 56.28093407 42.98990008 56.3125 45.12109375 C56.319031 46.47395259 56.32428109 47.82681835 56.328125 49.1796875 C56.34214355 51.03182861 56.34214355 51.03182861 56.35644531 52.92138672 C56 56 56 56 54.47949219 57.92626953 C53.99125977 58.28060059 53.50302734 58.63493164 53 59 C38.95460009 53.70956603 29.78237069 47.21227127 23.078125 33.625 C20.04058552 26.2292517 19.74662342 20.01691018 19.875 12.0625 C19.88402344 10.99708984 19.89304687 9.93167969 19.90234375 8.83398438 C19.92576461 6.22255839 19.96163063 3.61124913 20 1 C13.4 1 6.8 1 0 1 C0 0.67 0 0.34 0 0 Z " fill="#F7DEBC" transform="translate(271,250)"/>
<path d="M0 0 C0 13.86 0 27.72 0 42 C-16.809982 50.404991 -28.1238343 51.27501793 -46 51 C-45.67 40.77 -45.34 30.54 -45 20 C-42.07125 19.9175 -39.1425 19.835 -36.125 19.75 C-26.37418133 19.24873594 -19.34250307 18.51989378 -12.10546875 11.3984375 C-11.41807617 10.72441895 -10.73068359 10.05040039 -10.02246094 9.35595703 C-7.41152049 6.71872374 -4.85606834 4.03366673 -2.33178711 1.31347656 C-1 0 -1 0 0 0 Z " fill="#F9E0BD" transform="translate(387,259)"/>
<path d="M0 0 C2 1.625 2 1.625 3 4 C2.70886817 9.42813832 1.67342697 12.08060031 -2.13330078 15.92553711 C-3.01156525 16.82594223 -3.88982971 17.72634735 -4.79470825 18.65403748 C-5.76074081 19.61264896 -6.72763029 20.57039755 -7.6953125 21.52734375 C-8.68683088 22.52545027 -9.677531 23.52437026 -10.66744995 24.52406311 C-12.74086313 26.61080176 -14.82493708 28.68610725 -16.91699219 30.75415039 C-19.59249935 33.40104849 -22.23753586 36.07620571 -24.8750782 38.76087093 C-26.91304619 40.82807025 -28.96725717 42.87850023 -31.02660751 44.92437935 C-32.00865586 45.90427917 -32.98542195 46.88950347 -33.95663834 47.8801403 C-35.31761073 49.26369057 -36.70354275 50.62255281 -38.09033203 51.98022461 C-38.87119171 52.75853134 -39.65205139 53.53683807 -40.45657349 54.33872986 C-43.81052133 56.52940192 -46.07002027 56.388277 -50 56 C-52.13696289 54.76098633 -52.13696289 54.76098633 -53.91015625 53.01953125 C-54.57805176 52.37967285 -55.24594727 51.73981445 -55.93408203 51.08056641 C-56.95671143 50.05068604 -56.95671143 50.05068604 -58 49 C-58.69851074 48.32501465 -59.39702148 47.6500293 -60.11669922 46.95458984 C-62.24596423 44.88684453 -64.34465243 42.79205035 -66.4375 40.6875 C-67.15615234 39.97271484 -67.87480469 39.25792969 -68.61523438 38.52148438 C-69.29779297 37.83763672 -69.98035156 37.15378906 -70.68359375 36.44921875 C-71.29775146 35.83393311 -71.91190918 35.21864746 -72.54467773 34.5847168 C-74.77898643 32.15175291 -74.99927715 31.00780682 -75.3125 27.625 C-75 24 -75 24 -73.4375 21.5 C-70.70516455 19.8185628 -69.14295348 19.68696535 -66.00366211 20.22021484 C-61.6570761 21.91181905 -58.68284623 25.71947581 -55.5625 29.0625 C-54.83095703 29.82111328 -54.09941406 30.57972656 -53.34570312 31.36132812 C-51.54944581 33.2280269 -49.7687129 35.10724502 -48 37 C-44.87089582 35.6126656 -42.76460071 34.00527326 -40.36474609 31.57592773 C-39.67077728 30.87858017 -38.97680847 30.1812326 -38.2618103 29.4627533 C-37.52314728 28.71063065 -36.78448425 27.958508 -36.0234375 27.18359375 C-34.87374985 26.02610374 -34.87374985 26.02610374 -33.70083618 24.8452301 C-31.25409823 22.38068313 -28.81415106 19.90955414 -26.375 17.4375 C-23.92784707 14.96275662 -21.47926422 12.48947206 -19.02774048 10.01905823 C-17.50250282 8.481535 -15.97994583 6.94134713 -14.46029663 5.39830017 C-13.77263214 4.70410477 -13.08496765 4.00990936 -12.37646484 3.29467773 C-11.77119965 2.68115952 -11.16593445 2.0676413 -10.54232788 1.43553162 C-7.09964355 -1.76876902 -4.41840298 -1.00770594 0 0 Z " fill="#E68B97" transform="translate(338,116)"/>
<path d="M0 0 C1.34851269 -0.00082935 2.69702527 -0.00329125 4.04553223 -0.00730896 C6.86676597 -0.01016227 9.68720374 0.00448617 12.50830078 0.03198242 C16.11662426 0.0660664 19.72352521 0.06004368 23.33191681 0.04131985 C26.11504887 0.03072881 28.89785243 0.03970634 31.68095398 0.05470467 C33.65565674 0.06237629 35.63039941 0.05504605 37.60510254 0.04747009 C39.41222717 0.07122459 39.41222717 0.07122459 41.25585938 0.09545898 C42.31333374 0.10165756 43.37080811 0.10785614 44.46032715 0.11424255 C48.05213007 0.75534539 49.74922522 2.11244828 52.34375 4.62890625 C53.26860966 7.62177507 52.80235943 9.41864026 52.34375 12.62890625 C50.1073653 14.96096339 48.70971289 15.57818665 45.4979248 16.02331543 C43.85056335 16.03594421 43.85056335 16.03594421 42.16992188 16.04882812 C40.92182739 16.06473999 39.67373291 16.08065186 38.38781738 16.0970459 C37.02937883 16.09831303 35.67093889 16.0984901 34.3125 16.09765625 C32.91532078 16.10475935 31.51814448 16.11245857 30.12097168 16.12072754 C27.19563685 16.13416238 24.27057186 16.13574533 21.34521484 16.12988281 C17.5988175 16.12398153 13.85371382 16.1545978 10.10756683 16.19499969 C7.22329754 16.22086263 4.33934058 16.22375562 1.45497131 16.22010803 C0.07386518 16.22180006 -1.30725524 16.23145079 -2.68824768 16.24925232 C-4.61951271 16.27141171 -6.5510834 16.25854011 -8.48242188 16.24414062 C-9.58066284 16.24619507 -10.67890381 16.24824951 -11.8104248 16.25036621 C-14.65625 15.62890625 -14.65625 15.62890625 -17.00695801 13.2467041 C-18.88972415 10.25833019 -19.43139715 9.07400471 -18.65625 5.62890625 C-14.21140431 -1.28809446 -7.54943579 -0.07742212 0 0 Z " fill="#646C85" transform="translate(75.65625,161.37109375)"/>
<path d="M0 0 C1.27134293 -0.00930542 2.54268585 -0.01861084 3.85255432 -0.02819824 C5.23626825 -0.01261306 6.61997123 0.00397183 8.00366211 0.02148438 C9.42565306 0.02319587 10.84764717 0.0231294 12.26963806 0.0213623 C15.24647296 0.02301443 18.22255372 0.04169271 21.19921875 0.07324219 C25.01497491 0.11295676 28.82974532 0.11728294 32.64566898 0.10977936 C35.58053115 0.1067104 38.5151716 0.11882669 41.44997978 0.13591003 C42.85698493 0.14294069 44.26401521 0.14606448 45.67103767 0.1452179 C47.63623065 0.14701501 49.60136711 0.17065735 51.56640625 0.1953125 C53.24374596 0.20794128 53.24374596 0.20794128 54.95497131 0.2208252 C57.71850586 0.61523438 57.71850586 0.61523438 59.57176208 1.89538574 C61.18613394 4.31656761 61.18051245 6.73112683 61.31225586 9.58007812 C60.38379155 12.7625117 58.41986056 13.80158718 55.71850586 15.61523438 C52.87304688 16.12316895 52.87304688 16.12316895 49.72241211 16.1328125 C48.53768311 16.14542114 47.3529541 16.15802979 46.13232422 16.17102051 C44.86138916 16.16292358 43.5904541 16.15482666 42.28100586 16.14648438 C40.96817627 16.15031128 39.65534668 16.15413818 38.30273438 16.15808105 C35.52869771 16.16396604 32.7551776 16.15544657 29.98120117 16.13671875 C26.43344505 16.11392846 22.88689938 16.12705711 19.33918762 16.15100861 C15.94469782 16.16897573 12.55053001 16.15637943 9.15600586 16.14648438 C7.24960327 16.15862976 7.24960327 16.15862976 5.3046875 16.17102051 C3.52759399 16.15210754 3.52759399 16.15210754 1.71459961 16.1328125 C0.67489014 16.12963013 -0.36481934 16.12644775 -1.43603516 16.12316895 C-5.02595979 15.48234199 -6.70079094 14.14835973 -9.28149414 11.61523438 C-10.34399414 8.67773438 -10.34399414 8.67773438 -10.28149414 5.61523438 C-7.39771607 0.86722359 -5.48168239 -0.01006397 0 0 Z " fill="#666D85" transform="translate(67.281494140625,426.384765625)"/>
<path d="M0 0 C1.184729 -0.01260864 2.36945801 -0.02521729 3.59008789 -0.03820801 C4.86102295 -0.03011108 6.13195801 -0.02201416 7.44140625 -0.01367188 C8.75423584 -0.01749878 10.06706543 -0.02132568 11.41967773 -0.02526855 C14.1937144 -0.03115354 16.96723451 -0.02263407 19.74121094 -0.00390625 C23.28896706 0.01888404 26.83551273 0.00575539 30.38322449 -0.01819611 C33.77771429 -0.03616323 37.1718821 -0.02356693 40.56640625 -0.01367188 C42.47280884 -0.02581726 42.47280884 -0.02581726 44.41772461 -0.03820801 C46.19481812 -0.01929504 46.19481812 -0.01929504 48.0078125 0 C49.56737671 0.00477356 49.56737671 0.00477356 51.15844727 0.00964355 C54.72786431 0.64680976 56.42449187 2.01868854 59.00390625 4.51757812 C59.8630808 7.46251195 59.40246835 9.37890162 59.00390625 12.51757812 C57.85716248 14.23742676 57.85716248 14.23742676 56.00390625 15.51757812 C53.2403717 15.9119873 53.2403717 15.9119873 49.85180664 15.9375 C48.58361588 15.95341187 47.31542511 15.96932373 46.00880432 15.98571777 C44.62305761 15.986985 43.23730954 15.98716191 41.8515625 15.98632812 C40.43053384 15.99342886 39.00950805 16.00112773 37.58848572 16.00939941 C34.61009756 16.02284827 31.63197448 16.02441139 28.65356445 16.01855469 C24.83876553 16.01265871 21.02523939 16.04324138 17.21068668 16.08367157 C14.27580426 16.10953643 11.34122878 16.11242719 8.40624809 16.10877991 C7.00002277 16.11047242 5.59378348 16.12012786 4.18766975 16.13792419 C2.22037068 16.16008247 0.25277155 16.1472124 -1.71459961 16.1328125 C-3.39313271 16.13589417 -3.39313271 16.13589417 -5.10557556 16.13903809 C-7.99609375 15.51757812 -7.99609375 15.51757812 -10.38478088 13.17053223 C-11.99609375 10.51757812 -11.99609375 10.51757812 -12.05859375 7.45507812 C-9.94501523 1.61165515 -5.91468781 0.01810385 0 0 Z " fill="#656D85" transform="translate(68.99609375,293.482421875)"/>
</svg>
